<!DOCTYPE svg PUBLIC "-//W3C//DTD SVG 1.1//EN" "http://www.w3.org/Graphics/SVG/1.1/DTD/svg11.dtd">
<!-- Uploaded to: SVG Repo, www.svgrepo.com, Transformed by: SVG Repo Mixer Tools -->
<svg fill="#e48a81" height="800px" width="800px" version="1.1" id="Layer_1" xmlns="http://www.w3.org/2000/svg" xmlns:xlink="http://www.w3.org/1999/xlink" viewBox="-25.6 -25.6 307.20 307.20" xml:space="preserve" stroke="#e48a81">
<g id="SVGRepo_bgCarrier" stroke-width="0">
<path transform="translate(-25.6, -25.6), scale(9.6)" d="M16,28.996812930064543C20.142769611195558,29.062081043903927,24.24364023539906,27.86049619408203,27.04773659143343,24.810275939050555C30.114325088725206,21.474523824770767,32.01042104075019,16.991722194528663,31.120845549721167,12.548765676014805C30.205707078785267,7.978135666768284,26.90598293539232,4.062096691087768,22.557398027778394,2.383422689476932C18.548844165592612,0.8360100723917518,14.405937932400215,2.787889619180717,10.505570479769887,4.590699539283488C6.4872825393378,6.4480141253630485,1.773897913095535,8.214148544927255,0.6686786850318711,12.50072595607991C-0.4575121929004331,16.868641619697648,2.3095110654532878,21.16480481454278,5.380320024267389,24.468912179094087C8.136566642364194,27.434558974943684,11.95180426762694,28.933034799803426,16,28.996812930064543" fill="#ffe9de" strokewidth="0"/>
</g>
<g id="SVGRepo_tracerCarrier" stroke-linecap="round" stroke-linejoin="round"/>
<g id="SVGRepo_iconCarrier"> <g> <path d="M224.4,124.3h-29.3h-29.3c-17.8,0-29,14.7-29,33.2v45.4h20v-40.1c0-1.9,1.5-3.1,3.1-3.1c1.9,0,3.1,1.2,3.1,3.1v40h64.3v-40 c0-1.9,1.5-3.1,3.1-3.1c1.9,0,3.1,1.5,3.1,3.1v40h20v-45.1C253.8,139.1,242.5,124.3,224.4,124.3z"/> <circle cx="61.4" cy="93.5" r="26"/> <path d="M22.6,202.7v-40c0-1.9,1.5-3.1,3.1-3.1c1.9,0,3.1,1.2,3.1,3.1v40h64.3v-40c0-1.9,1.5-3.1,3.1-3.1c1.9,0,3.1,1.5,3.1,3.1v40 h20v-45.1c0.3-18.7-11-33.5-29-33.5H61.1H31.8c-17.8,0-29,14.7-29,33.2v45.4L22.6,202.7L22.6,202.7z"/> <path d="M169.1,93.5c0,14.4,11.6,26,26,26s26-11.6,26-26s-11.6-26-26-26S169.1,79.1,169.1,93.5z"/> <circle cx="94.7" cy="28.7" r="26"/> <circle cx="165" cy="28.7" r="26"/> <circle cx="130" cy="93.5" r="26"/> </g> </g>
</svg>